<?xml version="1.0" encoding="utf-8"?>
<!-- Generator: Adobe Illustrator 27.5.0, SVG Export Plug-In . SVG Version: 6.00 Build 0)  -->
<svg version="1.1" xmlns="http://www.w3.org/2000/svg" xmlns:xlink="http://www.w3.org/1999/xlink" x="0px" y="0px"
	 viewBox="0 0 500 500" style="enable-background:new 0 0 500 500;" xml:space="preserve">
<g id="Background_Complete">
	<g>
		<rect y="382.398" style="fill:#EBEBEB;" width="500" height="0.25"/>
		<rect x="416.779" y="398.494" style="fill:#EBEBEB;" width="33.122" height="0.25"/>
		<rect x="322.527" y="401.208" style="fill:#EBEBEB;" width="8.693" height="0.25"/>
		<rect x="396.586" y="389.208" style="fill:#EBEBEB;" width="19.192" height="0.25"/>
		<rect x="52.459" y="390.888" style="fill:#EBEBEB;" width="43.193" height="0.25"/>
		<rect x="104.556" y="390.888" style="fill:#EBEBEB;" width="6.333" height="0.25"/>
		<rect x="131.471" y="395.111" style="fill:#EBEBEB;" width="93.676" height="0.25"/>
		<path style="fill:#EBEBEB;" d="M237.014,337.8H43.915c-3.147,0-5.708-2.561-5.708-5.708V60.66c0-3.147,2.561-5.708,5.708-5.708
			h193.099c3.146,0,5.707,2.561,5.707,5.708v271.432C242.721,335.239,240.16,337.8,237.014,337.8z M43.915,55.203
			c-3.01,0-5.458,2.448-5.458,5.458v271.432c0,3.01,2.448,5.458,5.458,5.458h193.099c3.009,0,5.457-2.448,5.457-5.458V60.66
			c0-3.009-2.448-5.458-5.457-5.458H43.915z"/>
		<path style="fill:#EBEBEB;" d="M453.31,337.8H260.212c-3.147,0-5.707-2.561-5.707-5.708V60.66c0-3.147,2.561-5.708,5.707-5.708
			H453.31c3.148,0,5.708,2.561,5.708,5.708v271.432C459.019,335.239,456.458,337.8,453.31,337.8z M260.212,55.203
			c-3.009,0-5.457,2.448-5.457,5.458v271.432c0,3.01,2.448,5.458,5.457,5.458H453.31c3.01,0,5.458-2.448,5.458-5.458V60.66
			c0-3.009-2.448-5.458-5.458-5.458H260.212z"/>
	</g>
	<g>
		<g>
			<g>
				
					<rect x="435.97" y="326.282" transform="matrix(-1 -1.224647e-16 1.224647e-16 -1 903.6363 708.6813)" style="fill:#F0F0F0;" width="31.697" height="56.118"/>
				
					<rect x="408.212" y="338.591" transform="matrix(-1 -1.224647e-16 1.224647e-16 -1 848.1218 720.9909)" style="fill:#F0F0F0;" width="31.697" height="43.808"/>
				
					<rect x="387.944" y="302.49" transform="matrix(-1 -1.224647e-16 1.224647e-16 -1 807.5846 684.8893)" style="fill:#F0F0F0;" width="31.697" height="79.91"/>
				
					<rect x="366.88" y="237.701" transform="matrix(-1 -1.224647e-16 1.224647e-16 -1 765.4563 620.1004)" style="fill:#F0F0F0;" width="31.697" height="144.699"/>
				
					<rect x="288.48" y="248.964" transform="matrix(-1 -1.224647e-16 1.224647e-16 -1 662.0158 631.3633)" style="fill:#F0F0F0;" width="85.056" height="133.436"/>
			</g>
			<g>
				<rect x="27.572" y="332.179" style="fill:#F5F5F5;" width="44.881" height="50.219"/>
				<rect x="66.874" y="343.195" style="fill:#F5F5F5;" width="44.881" height="39.204"/>
				<rect x="95.573" y="310.888" style="fill:#F5F5F5;" width="44.881" height="71.51"/>
				<rect x="125.398" y="252.909" style="fill:#F5F5F5;" width="44.881" height="129.489"/>
			</g>
			<g>
				
					<rect x="161.214" y="224.213" transform="matrix(-1 -1.224647e-16 1.224647e-16 -1 395.8703 606.6111)" style="fill:#F0F0F0;" width="73.442" height="158.185"/>
				<g>
					
						<rect x="168.209" y="230.843" transform="matrix(-1 -1.224647e-16 1.224647e-16 -1 339.9144 480.9353)" style="fill:#F5F5F5;" width="3.497" height="19.25"/>
					
						<rect x="168.209" y="260.946" transform="matrix(-1 -1.224647e-16 1.224647e-16 -1 339.9144 541.1417)" style="fill:#F5F5F5;" width="3.497" height="19.25"/>
					
						<rect x="168.209" y="291.049" transform="matrix(-1 -1.224647e-16 1.224647e-16 -1 339.9144 601.3481)" style="fill:#F5F5F5;" width="3.497" height="19.25"/>
					
						<rect x="168.209" y="321.152" transform="matrix(-1 -1.224647e-16 1.224647e-16 -1 339.9144 661.5546)" style="fill:#F5F5F5;" width="3.497" height="19.25"/>
					
						<rect x="168.209" y="351.255" transform="matrix(-1 -1.224647e-16 1.224647e-16 -1 339.9144 721.761)" style="fill:#F5F5F5;" width="3.497" height="19.25"/>
					
						<rect x="180.6" y="230.843" transform="matrix(-1 -1.224647e-16 1.224647e-16 -1 364.698 480.9353)" style="fill:#F5F5F5;" width="3.497" height="19.25"/>
					
						<rect x="180.6" y="260.946" transform="matrix(-1 -1.224647e-16 1.224647e-16 -1 364.698 541.1417)" style="fill:#F5F5F5;" width="3.497" height="19.25"/>
					
						<rect x="180.6" y="291.049" transform="matrix(-1 -1.224647e-16 1.224647e-16 -1 364.698 601.3481)" style="fill:#F5F5F5;" width="3.497" height="19.25"/>
					
						<rect x="180.6" y="321.152" transform="matrix(-1 -1.224647e-16 1.224647e-16 -1 364.698 661.5546)" style="fill:#F5F5F5;" width="3.497" height="19.25"/>
					
						<rect x="180.6" y="351.255" transform="matrix(-1 -1.224647e-16 1.224647e-16 -1 364.698 721.761)" style="fill:#F5F5F5;" width="3.497" height="19.25"/>
					
						<rect x="192.992" y="230.843" transform="matrix(-1 -1.224647e-16 1.224647e-16 -1 389.4816 480.9353)" style="fill:#F5F5F5;" width="3.497" height="19.25"/>
					
						<rect x="192.992" y="260.946" transform="matrix(-1 -1.224647e-16 1.224647e-16 -1 389.4816 541.1417)" style="fill:#F5F5F5;" width="3.497" height="19.25"/>
					
						<rect x="192.992" y="291.049" transform="matrix(-1 -1.224647e-16 1.224647e-16 -1 389.4816 601.3481)" style="fill:#F5F5F5;" width="3.497" height="19.25"/>
					
						<rect x="192.992" y="321.152" transform="matrix(-1 -1.224647e-16 1.224647e-16 -1 389.4816 661.5546)" style="fill:#F5F5F5;" width="3.497" height="19.25"/>
					
						<rect x="192.992" y="351.255" transform="matrix(-1 -1.224647e-16 1.224647e-16 -1 389.4816 721.761)" style="fill:#F5F5F5;" width="3.497" height="19.25"/>
					
						<rect x="205.384" y="230.843" transform="matrix(-1 -1.224647e-16 1.224647e-16 -1 414.2652 480.9353)" style="fill:#F5F5F5;" width="3.497" height="19.25"/>
					
						<rect x="205.384" y="260.946" transform="matrix(-1 -1.224647e-16 1.224647e-16 -1 414.2652 541.1417)" style="fill:#F5F5F5;" width="3.497" height="19.25"/>
					
						<rect x="205.384" y="291.049" transform="matrix(-1 -1.224647e-16 1.224647e-16 -1 414.2652 601.3481)" style="fill:#F5F5F5;" width="3.497" height="19.25"/>
					
						<rect x="205.384" y="321.152" transform="matrix(-1 -1.224647e-16 1.224647e-16 -1 414.2652 661.5546)" style="fill:#F5F5F5;" width="3.497" height="19.25"/>
					
						<rect x="205.384" y="351.255" transform="matrix(-1 -1.224647e-16 1.224647e-16 -1 414.2652 721.761)" style="fill:#F5F5F5;" width="3.497" height="19.25"/>
					
						<rect x="217.776" y="230.843" transform="matrix(-1 -1.224647e-16 1.224647e-16 -1 439.0488 480.9353)" style="fill:#F5F5F5;" width="3.497" height="19.25"/>
					
						<rect x="217.776" y="260.946" transform="matrix(-1 -1.224647e-16 1.224647e-16 -1 439.0488 541.1417)" style="fill:#F5F5F5;" width="3.497" height="19.25"/>
					
						<rect x="217.776" y="291.049" transform="matrix(-1 -1.224647e-16 1.224647e-16 -1 439.0488 601.3481)" style="fill:#F5F5F5;" width="3.497" height="19.25"/>
					
						<rect x="217.776" y="321.152" transform="matrix(-1 -1.224647e-16 1.224647e-16 -1 439.0488 661.5546)" style="fill:#F5F5F5;" width="3.497" height="19.25"/>
					
						<rect x="217.776" y="351.255" transform="matrix(-1 -1.224647e-16 1.224647e-16 -1 439.0488 721.761)" style="fill:#F5F5F5;" width="3.497" height="19.25"/>
				</g>
				<polygon style="opacity:0.5;fill:#E0E0E0;" points="234.656,224.213 219.524,224.213 212.944,382.398 234.656,382.398 				"/>
			</g>
			<g>
				<polygon style="fill:#F0F0F0;" points="355.865,115.165 266.767,125.33 266.767,382.398 355.865,382.398 				"/>
				<rect x="355.865" y="115.165" style="fill:#E6E6E6;" width="71.277" height="267.233"/>
				<rect x="266.767" y="137.307" style="fill:#E0E0E0;" width="160.374" height="1.369"/>
				<rect x="266.767" y="151.858" style="fill:#E0E0E0;" width="160.374" height="1.369"/>
				<rect x="266.767" y="166.409" style="fill:#E0E0E0;" width="160.374" height="1.369"/>
				<rect x="266.767" y="180.96" style="fill:#E0E0E0;" width="160.374" height="1.369"/>
				<rect x="266.767" y="195.51" style="fill:#E0E0E0;" width="160.374" height="1.369"/>
				<rect x="266.767" y="210.061" style="fill:#E0E0E0;" width="160.374" height="1.369"/>
				<rect x="266.767" y="224.612" style="fill:#E0E0E0;" width="160.374" height="1.369"/>
				<rect x="266.767" y="239.163" style="fill:#E0E0E0;" width="160.374" height="1.369"/>
				<rect x="266.767" y="253.713" style="fill:#E0E0E0;" width="160.374" height="1.369"/>
				<rect x="266.767" y="268.264" style="fill:#E0E0E0;" width="160.374" height="1.369"/>
				<rect x="266.767" y="282.815" style="fill:#E0E0E0;" width="160.374" height="1.369"/>
				<rect x="266.767" y="297.366" style="fill:#E0E0E0;" width="160.374" height="1.369"/>
				<rect x="266.767" y="311.916" style="fill:#E0E0E0;" width="160.374" height="1.369"/>
				<rect x="266.767" y="326.467" style="fill:#E0E0E0;" width="160.374" height="1.369"/>
				<rect x="266.767" y="341.018" style="fill:#E0E0E0;" width="160.374" height="1.369"/>
				<rect x="266.767" y="355.569" style="fill:#E0E0E0;" width="160.374" height="1.369"/>
				<rect x="266.767" y="370.119" style="fill:#E0E0E0;" width="160.374" height="1.369"/>
			</g>
			<g>
				
					<rect x="108.019" y="161.812" transform="matrix(-1 -1.224647e-16 1.224647e-16 -1 258.296 544.211)" style="fill:#F0F0F0;" width="42.258" height="220.587"/>
				<polygon style="fill:#FAFAFA;" points="108.019,161.812 150.277,161.812 134.726,142.333 74.213,142.333 				"/>
				<polygon style="fill:#EBEBEB;" points="108.019,161.812 74.213,142.333 74.213,382.399 108.019,382.399 				"/>
				
					<rect x="74.213" y="172.09" transform="matrix(-1 -1.224647e-16 1.224647e-16 -1 224.4899 345.3538)" style="fill:#E0E0E0;" width="76.064" height="1.175"/>
				
					<rect x="74.213" y="184.576" transform="matrix(-1 -1.224647e-16 1.224647e-16 -1 224.4899 370.3255)" style="fill:#E0E0E0;" width="76.064" height="1.174"/>
				
					<rect x="74.213" y="197.061" transform="matrix(-1 -1.224647e-16 1.224647e-16 -1 224.4899 395.2972)" style="fill:#E0E0E0;" width="76.064" height="1.175"/>
				
					<rect x="74.213" y="209.547" transform="matrix(-1 -1.224647e-16 1.224647e-16 -1 224.4899 420.2688)" style="fill:#E0E0E0;" width="76.064" height="1.175"/>
				
					<rect x="74.213" y="222.033" transform="matrix(-1 -1.224647e-16 1.224647e-16 -1 224.4899 445.2404)" style="fill:#E0E0E0;" width="76.064" height="1.175"/>
				
					<rect x="74.213" y="234.519" transform="matrix(-1 -1.224647e-16 1.224647e-16 -1 224.4899 470.212)" style="fill:#E0E0E0;" width="76.064" height="1.175"/>
				
					<rect x="74.213" y="247.005" transform="matrix(-1 -1.224647e-16 1.224647e-16 -1 224.4899 495.1836)" style="fill:#E0E0E0;" width="76.064" height="1.175"/>
				
					<rect x="74.213" y="259.49" transform="matrix(-1 -1.224647e-16 1.224647e-16 -1 224.4899 520.1552)" style="fill:#E0E0E0;" width="76.064" height="1.175"/>
				
					<rect x="74.213" y="271.976" transform="matrix(-1 -1.224647e-16 1.224647e-16 -1 224.4899 545.127)" style="fill:#E0E0E0;" width="76.064" height="1.175"/>
				
					<rect x="74.213" y="284.462" transform="matrix(-1 -1.224647e-16 1.224647e-16 -1 224.4899 570.0986)" style="fill:#E0E0E0;" width="76.064" height="1.175"/>
				
					<rect x="74.213" y="296.948" transform="matrix(-1 -1.224647e-16 1.224647e-16 -1 224.4899 595.0702)" style="fill:#E0E0E0;" width="76.064" height="1.175"/>
				
					<rect x="74.213" y="309.434" transform="matrix(-1 -1.224647e-16 1.224647e-16 -1 224.4899 620.0418)" style="fill:#E0E0E0;" width="76.064" height="1.175"/>
				
					<rect x="74.213" y="321.919" transform="matrix(-1 -1.224647e-16 1.224647e-16 -1 224.4899 645.0134)" style="fill:#E0E0E0;" width="76.064" height="1.175"/>
				
					<rect x="74.213" y="334.405" transform="matrix(-1 -1.224647e-16 1.224647e-16 -1 224.4899 669.985)" style="fill:#E0E0E0;" width="76.064" height="1.175"/>
				
					<rect x="74.213" y="346.891" transform="matrix(-1 -1.224647e-16 1.224647e-16 -1 224.4899 694.9566)" style="fill:#E0E0E0;" width="76.064" height="1.175"/>
				
					<rect x="74.213" y="359.377" transform="matrix(-1 -1.224647e-16 1.224647e-16 -1 224.4899 719.9284)" style="fill:#E0E0E0;" width="76.064" height="1.175"/>
				
					<rect x="74.213" y="371.863" transform="matrix(-1 -1.224647e-16 1.224647e-16 -1 224.4899 744.9)" style="fill:#E0E0E0;" width="76.064" height="1.175"/>
			</g>
			<g>
				
					<rect x="257.354" y="185.716" transform="matrix(-1 -1.224647e-16 1.224647e-16 -1 571.6979 568.1143)" style="fill:#F0F0F0;" width="56.99" height="196.682"/>
				
					<rect x="293.979" y="195.884" transform="matrix(-1 -1.224647e-16 1.224647e-16 -1 597.1043 423.3335)" style="fill:#E6E6E6;" width="9.146" height="31.566"/>
				
					<rect x="271.542" y="195.884" transform="matrix(-1 -1.224647e-16 1.224647e-16 -1 552.2305 423.3335)" style="fill:#E6E6E6;" width="9.146" height="31.566"/>
				
					<rect x="293.979" y="236.763" transform="matrix(-1 -1.224647e-16 1.224647e-16 -1 597.1043 505.0921)" style="fill:#E6E6E6;" width="9.146" height="31.566"/>
				
					<rect x="271.542" y="236.763" transform="matrix(-1 -1.224647e-16 1.224647e-16 -1 552.2305 505.0921)" style="fill:#E6E6E6;" width="9.146" height="31.566"/>
				
					<rect x="293.979" y="277.642" transform="matrix(-1 -1.224647e-16 1.224647e-16 -1 597.1043 586.8507)" style="fill:#E6E6E6;" width="9.146" height="31.566"/>
				
					<rect x="271.542" y="277.642" transform="matrix(-1 -1.224647e-16 1.224647e-16 -1 552.2305 586.8507)" style="fill:#E6E6E6;" width="9.146" height="31.566"/>
				
					<rect x="293.979" y="318.522" transform="matrix(-1 -1.224647e-16 1.224647e-16 -1 597.1043 668.6093)" style="fill:#E6E6E6;" width="9.146" height="31.566"/>
				
					<rect x="271.542" y="318.522" transform="matrix(-1 -1.224647e-16 1.224647e-16 -1 552.2305 668.6093)" style="fill:#E6E6E6;" width="9.146" height="31.566"/>
				<polygon style="fill:#FFFFFF;" points="257.354,185.716 314.344,185.716 300.976,172.09 243.986,172.09 				"/>
				<polygon style="fill:#E6E6E6;" points="257.354,185.716 243.986,172.09 230.618,185.716 230.618,382.398 257.354,382.398 				
					"/>
			</g>
		</g>
		<g>
			<circle style="fill:#FAFAFA;" cx="190.26" cy="122.461" r="27.457"/>
			<path style="fill:#F5F5F5;" d="M392.844,80.679c-6.837-0.656-13.102-5.486-22.045-6.819c-4.428-0.66-7.03,0.981-9.62,2.564
				c-3.276,2.002-7.285,2.996-12.323,2.881c-6.015-0.138-12.506-1.208-19.406-3.561c-5.644-1.925-11.532-4.22-16.007-3.399
				c-8.295,1.521-8.533,7.032-15.395,7.78c-6.862,0.748-8.108,4.488-2.423,4.488H399.9
				C404.883,84.613,399.681,81.335,392.844,80.679z"/>
			<g>
				<path style="fill:#F5F5F5;" d="M98.885,79.543c-2.875,1.685-8.569,0.663-17.904-0.791c-5.484-0.854-8.197,0.894-11.994,2.472
					c-1.521,0.632-8.196,2.831,0.523,2.831l6.36-0.019h42.102c13.44,0,0.94-2.4-1.216-3.322c-0.037-0.016-0.073-0.032-0.11-0.048
					C110.253,77.859,101.76,77.859,98.885,79.543z"/>
			</g>
			<path style="fill:#F5F5F5;" d="M130.023,117.836c0,0,48.374,0,53.016,0c4.642,0-0.204-3.054-6.573-3.665
				c-6.369-0.611-12.204-5.11-20.535-6.352c-8.33-1.242-8.556,5.497-19.496,5.436C127.562,113.205,120.984,117.836,130.023,117.836z
				"/>
		</g>
	</g>
</g>
<g id="Background_Simple" style="display:none;">
	<g style="display:inline;">
		<path style="fill:#407BFF;" d="M377.663,204.668c-11.467-25.134-42.984-12.667-64.363-21.696
			c-25.628-10.823-28.62-24.282-36.87-47.096c-12.171-33.654-21.801-74.532-60.707-90.446
			C111.255,2.697,58.151,116.875,88.272,193.788c19.534,49.879,68.601,50.147,112.518,74.65
			c39.59,22.088,84.941,89.881,136.306,87.212c45.753-2.378,59.611-55.684,30.607-84.785c-9.388-9.419-11.157-22.425-3.934-33.195
			C370.556,227.549,383.802,218.123,377.663,204.668z"/>
		<path style="opacity:0.9;fill:#FFFFFF;" d="M377.663,204.668c-11.467-25.134-42.984-12.667-64.363-21.696
			c-25.628-10.823-28.62-24.282-36.87-47.096c-12.171-33.654-21.801-74.532-60.707-90.446
			C111.255,2.697,58.151,116.875,88.272,193.788c19.534,49.879,68.601,50.147,112.518,74.65
			c39.59,22.088,84.941,89.881,136.306,87.212c45.753-2.378,59.611-55.684,30.607-84.785c-9.388-9.419-11.157-22.425-3.934-33.195
			C370.556,227.549,383.802,218.123,377.663,204.668z"/>
	</g>
</g>
<g id="Shadow_1_">
	<ellipse id="_x3C_Path_x3E__158_" style="fill:#F5F5F5;" cx="250" cy="416.238" rx="193.889" ry="11.323"/>
</g>
<g id="App">
	<g>
		<g>
			<path style="fill:#407BFF;" d="M137.12,182.415c-0.632,0-1.145-0.512-1.145-1.145V89.708c0-0.632,0.512-1.145,1.145-1.145
				c0.632,0,1.145,0.513,1.145,1.145v91.562C138.264,181.902,137.752,182.415,137.12,182.415z"/>
			<path style="fill:#407BFF;" d="M167.641,182.415c-0.632,0-1.145-0.512-1.145-1.145V89.708c0-0.632,0.512-1.145,1.145-1.145
				c0.632,0,1.145,0.513,1.145,1.145v91.562C168.785,181.902,168.273,182.415,167.641,182.415z"/>
			<path style="fill:#407BFF;" d="M167.641,121.373c-0.293,0-0.586-0.112-0.809-0.335l-14.451-14.451l-14.451,14.451
				c-0.447,0.447-1.172,0.447-1.619,0c-0.447-0.447-0.447-1.172,0-1.619l14.451-14.451l-14.451-14.451
				c-0.327-0.327-0.425-0.82-0.248-1.247c0.177-0.428,0.594-0.707,1.057-0.707h30.521c0.463,0,0.88,0.279,1.057,0.707
				c0.177,0.428,0.079,0.92-0.248,1.247l-14.451,14.451l14.451,14.451c0.447,0.447,0.447,1.172,0,1.619
				C168.227,121.262,167.934,121.373,167.641,121.373z M139.883,90.853l12.497,12.497l12.497-12.497H139.883z"/>
			<path style="fill:#407BFF;" d="M137.12,90.853c-0.293,0-0.586-0.112-0.809-0.335c-0.447-0.447-0.447-1.172,0-1.619l15.26-15.26
				c0.447-0.447,1.171-0.447,1.619,0l15.26,15.26c0.447,0.447,0.447,1.172,0,1.619c-0.447,0.447-1.171,0.447-1.619,0L152.38,76.067
				l-14.451,14.451C137.706,90.741,137.413,90.853,137.12,90.853z"/>
			<path style="fill:#407BFF;" d="M198.161,90.853c-0.293,0-0.586-0.112-0.809-0.335l-14.451-14.451L168.45,90.518
				c-0.447,0.447-1.172,0.447-1.619,0c-0.447-0.447-0.447-1.172,0-1.619l15.26-15.26c0.447-0.447,1.172-0.447,1.619,0l15.26,15.26
				c0.447,0.447,0.447,1.172,0,1.619C198.747,90.741,198.454,90.853,198.161,90.853z"/>
			<path style="fill:#407BFF;" d="M198.161,90.853c-0.293,0-0.586-0.112-0.809-0.335c-0.447-0.447-0.447-1.172,0-1.619l15.26-15.26
				c0.447-0.447,1.171-0.447,1.619,0l15.26,15.26c0.447,0.447,0.447,1.172,0,1.619c-0.447,0.447-1.171,0.447-1.619,0l-14.451-14.451
				l-14.451,14.451C198.747,90.741,198.454,90.853,198.161,90.853z"/>
			<path style="fill:#407BFF;" d="M137.12,151.894c-0.293,0-0.586-0.112-0.809-0.335c-0.447-0.447-0.447-1.172,0-1.619
				l30.521-30.521c0.447-0.447,1.171-0.447,1.619,0c0.447,0.447,0.447,1.172,0,1.619l-30.521,30.521
				C137.706,151.782,137.413,151.894,137.12,151.894z"/>
			<path style="fill:#407BFF;" d="M167.641,151.894c-0.293,0-0.586-0.112-0.809-0.335l-30.521-30.521
				c-0.447-0.447-0.447-1.172,0-1.619c0.447-0.447,1.171-0.447,1.619,0l30.521,30.521c0.447,0.447,0.447,1.172,0,1.619
				C168.227,151.782,167.934,151.894,167.641,151.894z"/>
			<path style="fill:#263238;" d="M167.641,182.415H137.12c-0.463,0-0.88-0.279-1.057-0.707c-0.177-0.428-0.079-0.92,0.248-1.247
				l14.451-14.451l-14.451-14.451c-0.447-0.447-0.447-1.172,0-1.619c0.447-0.447,1.172-0.447,1.619,0l14.451,14.451l14.451-14.451
				c0.447-0.447,1.172-0.447,1.619,0c0.447,0.447,0.447,1.172,0,1.619l-14.451,14.451l14.451,14.451
				c0.327,0.327,0.425,0.82,0.248,1.247C168.521,182.136,168.104,182.415,167.641,182.415z M139.883,180.126h24.994l-12.497-12.497
				L139.883,180.126z"/>
			<g>
				<polygon style="fill:#407BFF;" points="126.437,106.188 110.141,106.188 112.195,89.708 124.383,89.708 				"/>
				<path style="fill:#407BFF;" d="M126.437,107.332h-16.296c-0.328,0-0.641-0.141-0.858-0.387
					c-0.217-0.246-0.318-0.573-0.278-0.899l2.054-16.479c0.072-0.573,0.558-1.003,1.136-1.003h12.188
					c0.577,0,1.064,0.43,1.136,1.003l2.054,16.479c0.04,0.326-0.061,0.653-0.278,0.899
					C127.077,107.191,126.765,107.332,126.437,107.332z M111.437,105.043h13.704l-1.769-14.19h-10.166L111.437,105.043z"/>
			</g>
			<path style="fill:#263238;" d="M228.682,90.853H107.556c-0.632,0-1.145-0.512-1.145-1.145c0-0.632,0.513-1.145,1.145-1.145
				h121.126c0.632,0,1.145,0.513,1.145,1.145C229.826,90.34,229.314,90.853,228.682,90.853z"/>
			<path style="fill:#407BFF;" d="M213.421,75.592H152.38c-0.632,0-1.145-0.512-1.145-1.145c0-0.632,0.512-1.145,1.145-1.145h61.041
				c0.632,0,1.145,0.512,1.145,1.145C214.566,75.08,214.053,75.592,213.421,75.592z"/>
		</g>
		<g>
			<g>
				<path style="fill:#407BFF;" d="M244.717,140.946H127.04c-6.197,0-11.267,5.07-11.267,11.267v248.111
					c0,6.197,5.07,11.267,11.267,11.267h117.677c6.197,0,11.267-5.07,11.267-11.267V152.213
					C255.984,146.016,250.913,140.946,244.717,140.946z"/>
				<path style="opacity:0.2;" d="M244.717,140.946H127.04c-6.197,0-11.267,5.07-11.267,11.267v248.111
					c0,6.197,5.07,11.267,11.267,11.267h117.677c6.197,0,11.267-5.07,11.267-11.267V152.213
					C255.984,146.016,250.913,140.946,244.717,140.946z"/>
			</g>
			<path style="fill:#407BFF;" d="M259.113,140.946H141.436c-6.197,0-11.267,5.07-11.267,11.267v248.111
				c0,6.197,5.07,11.267,11.267,11.267h117.677c6.197,0,11.267-5.07,11.267-11.267V152.213
				C270.38,146.016,265.31,140.946,259.113,140.946z"/>
			<path style="fill:#FFFFFF;" d="M141.436,406.897c-3.624,0-6.572-2.948-6.572-6.572V152.213c0-3.624,2.948-6.572,6.572-6.572
				h117.677c3.624,0,6.572,2.948,6.572,6.572v248.111c0,3.624-2.948,6.572-6.572,6.572H141.436z"/>
			<path style="opacity:0.1;" d="M151.478,301.708l-5.39-110.996c-0.218-4.488,3.244-8.303,7.732-8.521l96.075-4.665
				c4.488-0.218,8.303,3.244,8.521,7.732l5.39,110.996c0.218,4.488-3.244,8.303-7.732,8.521l-96.075,4.665
				C155.511,309.658,151.696,306.196,151.478,301.708z"/>
			<path style="fill:#407BFF;" d="M138.62,158.471v-4.693c0-2.42,1.962-4.383,4.383-4.383h114.545c2.421,0,4.383,1.962,4.383,4.383
				v4.693c0,2.421-1.962,4.383-4.383,4.383H143.002C140.582,162.854,138.62,160.892,138.62,158.471z"/>
			<path style="fill:#FFFFFF;" d="M151.66,159.281L151.66,159.281c-1.736,0-3.156-1.42-3.156-3.156l0,0
				c0-1.736,1.42-3.156,3.156-3.156l0,0c1.736,0,3.156,1.42,3.156,3.156l0,0C154.816,157.861,153.396,159.281,151.66,159.281z"/>
			<path style="fill:#FFFFFF;" d="M161.049,159.281L161.049,159.281c-1.736,0-3.156-1.42-3.156-3.156l0,0
				c0-1.736,1.42-3.156,3.156-3.156l0,0c1.736,0,3.156,1.42,3.156,3.156l0,0C164.205,157.861,162.785,159.281,161.049,159.281z"/>
			<path style="fill:#FFFFFF;" d="M170.438,159.281L170.438,159.281c-1.736,0-3.156-1.42-3.156-3.156l0,0
				c0-1.736,1.42-3.156,3.156-3.156l0,0c1.736,0,3.156,1.42,3.156,3.156l0,0C173.594,157.861,172.174,159.281,170.438,159.281z"/>
			<path style="fill:#FFFFFF;" d="M253.141,160.037h-4.382c-0.947,0-1.721-0.775-1.721-1.721v-4.382
				c0-0.947,0.775-1.721,1.721-1.721h4.382c0.947,0,1.721,0.775,1.721,1.721v4.382C254.862,159.263,254.087,160.037,253.141,160.037
				z"/>
			
				<ellipse transform="matrix(0.9239 -0.3827 0.3827 0.9239 -114.7122 90.2073)" style="fill:#407BFF;" cx="169.395" cy="333.452" rx="21.908" ry="21.908"/>
			<path style="fill:#407BFF;" d="M247.608,323.493h-42.713c-1.508,0-2.742-1.234-2.742-2.742l0,0c0-1.508,1.234-2.742,2.742-2.742
				h42.713c1.508,0,2.742,1.234,2.742,2.742l0,0C250.35,322.259,249.116,323.493,247.608,323.493z"/>
			<path style="fill:#407BFF;" d="M247.608,336.194h-42.713c-1.508,0-2.742-1.234-2.742-2.742l0,0c0-1.508,1.234-2.742,2.742-2.742
				h42.713c1.508,0,2.742,1.234,2.742,2.742l0,0C250.35,334.96,249.116,336.194,247.608,336.194z"/>
			<path style="fill:#407BFF;" d="M247.608,348.896h-42.713c-1.508,0-2.742-1.234-2.742-2.742v0c0-1.508,1.234-2.742,2.742-2.742
				h42.713c1.508,0,2.742,1.234,2.742,2.742v0C250.35,347.662,249.116,348.896,247.608,348.896z"/>
			<path style="fill:#E0E0E0;" d="M243.241,399.512h-85.932c-5.402,0-9.822-4.42-9.822-9.822v-12.208
				c0-5.402,4.42-9.821,9.822-9.821h85.932c5.402,0,9.821,4.42,9.821,9.821v12.208C253.062,395.092,248.643,399.512,243.241,399.512
				z"/>
		</g>
		<g>
			<g>
				<path style="fill:#FFFFFF;" d="M163.508,296.966l-8.639-110.791c-0.349-4.48,2.999-8.395,7.479-8.744l95.897-7.478
					c4.48-0.349,8.395,2.999,8.744,7.479l8.639,110.791c0.349,4.48-2.999,8.395-7.479,8.744l-95.897,7.478
					C167.772,304.794,163.857,301.446,163.508,296.966z"/>
				<path style="fill:#407BFF;" d="M171.613,304.97c-4.46,0-8.251-3.445-8.604-7.965l-8.639-110.791
					c-0.37-4.748,3.191-8.911,7.939-9.281l95.897-7.478c2.298-0.179,4.532,0.547,6.285,2.047c1.753,1.499,2.817,3.592,2.997,5.892
					l8.639,110.791c0.37,4.748-3.191,8.911-7.939,9.281l-95.897,7.478C172.064,304.961,171.837,304.97,171.613,304.97z
					 M164.006,296.927c0.327,4.198,4.008,7.344,8.207,7.019l95.897-7.478c4.198-0.327,7.347-4.009,7.019-8.207l-8.639-110.791
					c-0.159-2.034-1.1-3.884-2.65-5.209c-1.55-1.326-3.522-1.969-5.557-1.81l-95.897,7.477c-4.198,0.327-7.347,4.009-7.019,8.207
					L164.006,296.927z"/>
			</g>
			<g>
				<path style="fill:#407BFF;" d="M167.318,294.366l-1.914-24.551c-0.276-3.541,2.371-6.636,5.912-6.912l91.319-7.121
					c3.541-0.276,6.636,2.371,6.912,5.912l1.914,24.551c0.276,3.541-2.371,6.636-5.912,6.912l-91.319,7.121
					C170.689,300.554,167.594,297.907,167.318,294.366z"/>
				<path style="opacity:0.2;fill:#407BFF;" d="M164.107,253.183l-5.065-64.957c-0.279-3.582,2.398-6.712,5.98-6.991l40.208-3.135
					c3.582-0.279,6.712,2.398,6.991,5.98l5.065,64.957c0.279,3.582-2.398,6.712-5.98,6.991l-40.208,3.135
					C167.516,259.442,164.386,256.765,164.107,253.183z"/>
				<path style="opacity:0.2;fill:#407BFF;" d="M218.743,193.383l-0.86-11.026c-0.224-2.878,1.927-5.393,4.805-5.618l34.447-2.686
					c2.878-0.224,5.393,1.927,5.618,4.805l0.86,11.026c0.224,2.878-1.927,5.394-4.805,5.618l-34.447,2.686
					C221.482,198.412,218.967,196.261,218.743,193.383z"/>
				<path style="opacity:0.4;fill:#407BFF;" d="M220.945,221.622l-0.86-11.026c-0.225-2.878,1.927-5.394,4.805-5.618l34.447-2.686
					c2.878-0.224,5.394,1.927,5.618,4.805l0.86,11.026c0.224,2.878-1.927,5.393-4.805,5.618l-34.447,2.686
					C223.684,226.652,221.169,224.5,220.945,221.622z"/>
				<path style="opacity:0.6;fill:#407BFF;" d="M223.147,249.861l-0.86-11.026c-0.225-2.878,1.927-5.394,4.805-5.618l34.447-2.686
					c2.878-0.225,5.393,1.927,5.618,4.805l0.86,11.026c0.224,2.878-1.927,5.393-4.805,5.618l-34.447,2.686
					C225.886,254.891,223.371,252.74,223.147,249.861z"/>
			</g>
		</g>
		<g>
			<g>
				<line style="fill:#263238;" x1="226.251" y1="89.708" x2="226.251" y2="156.125"/>
				<path style="fill:#263238;" d="M226.251,156.639c-0.284,0-0.513-0.23-0.513-0.514V89.708c0-0.284,0.23-0.513,0.513-0.513
					c0.284,0,0.513,0.23,0.513,0.513v66.417C226.765,156.409,226.535,156.639,226.251,156.639z"/>
			</g>
			<path style="fill:#263238;" d="M232.602,167.02h-12.701c-1.039,0-1.953-0.684-2.247-1.681l-2.73-9.282
				c-0.441-1.5,0.683-3.003,2.246-3.003h18.162c1.563,0,2.688,1.503,2.247,3.003l-2.731,9.282
				C234.555,166.336,233.64,167.02,232.602,167.02z"/>
			<path style="fill:#263238;" d="M226.251,181.384c-0.632,0-1.145-0.512-1.145-1.145s0.512-1.145,1.145-1.145
				c2.201,0,3.991-1.79,3.991-3.991c0-2.2-1.79-3.991-3.991-3.991c-0.632,0-1.145-0.512-1.145-1.145v-2.949
				c0-0.632,0.512-1.145,1.145-1.145c0.632,0,1.145,0.512,1.145,1.145v1.909c2.918,0.54,5.135,3.103,5.135,6.175
				C232.531,178.567,229.714,181.384,226.251,181.384z"/>
		</g>
	</g>
</g>
<g id="Character_1_">
	<g>
		<g>
			<path style="fill:#407BFF;" d="M402.719,196.572c1.272,2.928,2.313,5.712,3.333,8.624c0.992,2.897,1.939,5.82,2.742,8.829
				c0.824,3.005,1.551,6.065,2.079,9.309c0.26,1.627,0.514,3.278,0.618,5.066c0.102,1.795,0.157,3.665-0.156,5.964l-0.055,0.401
				c-0.026,0.195-0.075,0.403-0.131,0.585c-0.916,2.901-2.058,5.467-3.235,7.98c-1.168,2.512-2.495,4.875-3.816,7.226
				c-1.352,2.334-2.764,4.607-4.245,6.834c-1.496,2.229-3.001,4.394-4.702,6.54c-1.33,1.678-3.768,1.961-5.446,0.631
				c-1.31-1.038-1.77-2.752-1.276-4.252l0.03-0.087c0.802-2.417,1.695-4.872,2.543-7.29c0.855-2.423,1.726-4.828,2.536-7.228
				c0.836-2.385,1.621-4.781,2.344-7.119c0.716-2.333,1.346-4.669,1.786-6.795l-0.186,0.985c-0.002-0.64-0.096-1.734-0.293-2.871
				c-0.198-1.148-0.453-2.408-0.767-3.675c-0.31-1.271-0.67-2.571-1.068-3.88c-0.378-1.313-0.786-2.635-1.223-3.962
				c-0.878-2.649-1.794-5.328-2.766-7.996l-2.928-7.937l-0.05-0.134c-1.476-4.001,0.571-8.442,4.573-9.918
				C396.82,190.98,401.094,192.852,402.719,196.572z"/>
			<path style="opacity:0.7;fill:#FFFFFF;" d="M402.719,196.572c1.272,2.928,2.313,5.712,3.333,8.624
				c0.992,2.897,1.939,5.82,2.742,8.829c0.824,3.005,1.551,6.065,2.079,9.309c0.26,1.627,0.514,3.278,0.618,5.066
				c0.102,1.795,0.157,3.665-0.156,5.964l-0.055,0.401c-0.026,0.195-0.075,0.403-0.131,0.585c-0.916,2.901-2.058,5.467-3.235,7.98
				c-1.168,2.512-2.495,4.875-3.816,7.226c-1.352,2.334-2.764,4.607-4.245,6.834c-1.496,2.229-3.001,4.394-4.702,6.54
				c-1.33,1.678-3.768,1.961-5.446,0.631c-1.31-1.038-1.77-2.752-1.276-4.252l0.03-0.087c0.802-2.417,1.695-4.872,2.543-7.29
				c0.855-2.423,1.726-4.828,2.536-7.228c0.836-2.385,1.621-4.781,2.344-7.119c0.716-2.333,1.346-4.669,1.786-6.795l-0.186,0.985
				c-0.002-0.64-0.096-1.734-0.293-2.871c-0.198-1.148-0.453-2.408-0.767-3.675c-0.31-1.271-0.67-2.571-1.068-3.88
				c-0.378-1.313-0.786-2.635-1.223-3.962c-0.878-2.649-1.794-5.328-2.766-7.996l-2.928-7.937l-0.05-0.134
				c-1.476-4.001,0.571-8.442,4.573-9.918C396.82,190.98,401.094,192.852,402.719,196.572z"/>
		</g>
		<path style="fill:#7F3E3B;" d="M388.892,259.015l-5.112,2.673l7.149,7.435c0,0,2.154-1.482,3.627-3.468
			c1.465-1.975,1.067-4.763-0.895-6.245l0,0C392.28,258.367,390.424,258.214,388.892,259.015z"/>
		<path style="fill:#7F3E3B;" d="M381.043,270.191l2.945,2.183c1.172,0.869,2.802,0.761,3.849-0.254l3.092-2.997l-7.149-7.435
			l-3.318,4.284C379.438,267.293,379.701,269.196,381.043,270.191z"/>
		<path style="fill:#7F3E3B;" d="M307.442,211.627l-5.268-6.798l-6.055,8.349c0,0,5.517,5.576,8.954,3.123L307.442,211.627z"/>
		<path style="fill:#7F3E3B;" d="M293.321,203.637l-1.629,3.284c-0.648,1.307-0.255,2.892,0.93,3.744l3.496,2.514l6.055-8.349
			l-4.803-2.51C295.89,201.546,294.063,202.141,293.321,203.637z"/>
		<path style="fill:#263238;" d="M394.858,417.142h-6.337l-0.779-0.729l-1.168,0.729c-3.872,0-9.098-0.145-11.58-0.99
			c-0.146-1.198,0.511-1.621,0.511-1.621s10.242-3.176,11.167-5.305l7.764,0"/>
		<path style="fill:#407BFF;" d="M387.007,327.492c-1.267-32.778,0.805-58.69-2.307-71.267l-28.994-4.688
			c0,0,5.347,55.532,11.764,78.504c6.441,23.061,17.956,79.697,17.956,79.697h9.875
			C395.301,409.738,395.557,354.393,387.007,327.492z"/>
		<path style="opacity:0.2;" d="M366.025,279.04l-5.395,13.972c1.719,12.253,3.779,24.773,5.992,33.782
			C368.98,310.444,367.271,283.642,366.025,279.04z"/>
		<path style="fill:#263238;" d="M312.72,407.736c0,0,14.586,1.116,16.187-0.642l7.655,2.346l-2.146,7.703l-4.712-1.444
			l-0.532-0.933l-1.388,0.345c-3.818-1.17-13.919-4.419-16.093-5.977C311.935,407.942,312.72,407.736,312.72,407.736z"/>
		<path style="fill:#407BFF;" d="M356.326,329.485c16.023-38.852,19.209-74.723,19.209-74.723l-31.667-5.185
			c0,0-4.694,57.269-6.743,80.81c-2.134,24.477-10.354,76.592-10.354,76.592l10.198,3.125
			C336.969,410.104,355.269,359.915,356.326,329.485z"/>
		<path style="fill:#7F3E3B;" d="M387.355,166.053c-1.867,6.032-3.043,14.687-1.201,19.599c-3.505,2.416-9.026,5.243-15.675,4.171
			c-6.649-1.072-4.772-5.4-2.644-7.46c5.127-1.711,5.669-4.119,4.815-6.431L387.355,166.053z"/>
		<g>
			<path style="fill:#407BFF;" d="M392.148,188.055c0,0-3.528-4.153-5.081-5.236s-14.509-2.693-17.592-2.574
				c-3.084,0.119-7.387,4.053-7.387,4.053L392.148,188.055z"/>
			<path style="opacity:0.7;fill:#FFFFFF;" d="M392.148,188.055c0,0-3.528-4.153-5.081-5.236s-14.509-2.693-17.592-2.574
				c-3.084,0.119-7.387,4.053-7.387,4.053L392.148,188.055z"/>
		</g>
		<path style="fill:#263238;" d="M370.01,158.88c-0.195,0.592-0.666,0.966-1.053,0.835c-0.387-0.131-0.542-0.718-0.347-1.31
			c0.195-0.592,0.666-0.966,1.053-0.835C370.049,157.701,370.205,158.287,370.01,158.88z"/>
		<path style="fill:#630F0F;" d="M369.772,159.72c0,0-2.47,2.961-4.493,4.108c0.724,1.333,2.65,1.489,2.65,1.489L369.772,159.72z"/>
		<path style="fill:#263238;" d="M369.999,154.791c0.052,0.107,0.155,0.186,0.281,0.202c1.598,0.203,2.192,1.382,2.217,1.432
			c0.089,0.181,0.307,0.256,0.487,0.167c0.181-0.089,0.257-0.308,0.17-0.49c-0.033-0.065-0.777-1.584-2.78-1.839
			c-0.2-0.025-0.383,0.117-0.409,0.319C369.956,154.656,369.969,154.729,369.999,154.791z"/>
		<path style="fill:#7F3E3B;" d="M390.525,163.929c-2.841,7.124-4.142,11.441-9.039,13.932c-7.367,3.746-15.235-2.626-14.577-10.476
			c0.592-7.065,5.138-17.529,13.2-18.013C388.052,148.894,393.366,156.805,390.525,163.929z"/>
		<path style="fill:#263238;" d="M374.517,164.157c-0.964,5.947,3.903,12.996,11.328,13.01c7.158,0.013,7.267-10.201,6.02-12.544
			c3.795-0.663,6.023-5.887,3.674-9.178c3.494-2.749-4.578-6.905-14.396-7.447c-10.834-0.598-8.854,5.783-5.24,7.71
			C372.409,156.732,372.047,162.908,374.517,164.157z"/>
		<g>
			<path style="fill:#407BFF;" d="M372.437,150.716c0,0,0.694,8.398,7.742,13.441c7.047,5.043,13.323,5.525,13.323,5.525
				l1.735-5.525c0,0-15.915-9.586-21.294-14.947C373.417,149.618,372.437,150.716,372.437,150.716z"/>
			<path style="opacity:0.6;fill:#FFFFFF;" d="M372.437,150.716c0,0,0.694,8.398,7.742,13.441
				c7.047,5.043,13.323,5.525,13.323,5.525l1.735-5.525c0,0-15.915-9.586-21.294-14.947
				C373.417,149.618,372.437,150.716,372.437,150.716z"/>
		</g>
		<path style="fill:#7F3E3B;" d="M378.264,164.264c-1.048,1.504-2.582,2.397-3.926,2.654c-2.023,0.387-2.64-1.645-1.748-3.617
			c0.803-1.775,2.822-4.116,4.694-3.608C379.127,160.194,379.463,162.544,378.264,164.264z"/>
		<g>
			<path style="fill:#407BFF;" d="M391.841,187.149c-10.143-2.784-24.813-4.812-34.788-4.538c-5.079,0.139-9.395,3.732-10.536,8.683
				c-3.379,14.66-3.892,41.081-4.878,67.603c21.764,11.028,46.137,6.645,46.137,6.645c1.282-5.194,0.969-22.866,0.548-32.34
				c2.692-9.324,7.584-19.734,11.295-32.096C401.42,195.104,397.884,188.808,391.841,187.149z"/>
			<path style="opacity:0.7;fill:#FFFFFF;" d="M391.841,187.149c-10.143-2.784-24.813-4.812-34.788-4.538
				c-5.079,0.139-9.395,3.732-10.536,8.683c-3.379,14.66-3.892,41.081-4.878,67.603c21.764,11.028,46.137,6.645,46.137,6.645
				c1.282-5.194,0.969-22.866,0.548-32.34c2.692-9.324,7.584-19.734,11.295-32.096C401.42,195.104,397.884,188.808,391.841,187.149z
				"/>
		</g>
		<path style="fill:#263238;" d="M359.862,181.135c-8.359-0.475-13.56,3.655-15.691,16.273c-2.132,12.618-4.431,41.23-3.544,51.551
			c28.078,11.809,45.481,7.026,49.228,4.253c1.471-2.257,0.934-9.243,0.198-12.013c3.083-7.915,2.77-15.52,2.77-15.52
			c4.155-4.027,5.964-11.675,6.136-14.647c3.662-4.883,4.147-15.936,2.119-19.085C399.052,188.801,393.146,183.028,359.862,181.135z
			"/>
		<path style="opacity:0.2;fill:#FFFFFF;" d="M344.657,251.071C344.657,251.071,344.657,251.071,344.657,251.071
			c-0.277,0-0.5-0.224-0.5-0.501c0.024-20.284,2.711-50.195,6.526-60.685c0.095-0.259,0.382-0.393,0.641-0.299
			c0.26,0.094,0.393,0.381,0.299,0.641c-3.417,9.394-6.438,37.592-6.466,60.344C345.157,250.848,344.933,251.071,344.657,251.071z"
			/>
		<g>
			<path style="fill:#407BFF;" d="M359.722,195.026c-1.52,2.775-3.06,5.248-4.727,7.792c-1.672,2.51-3.399,4.998-5.294,7.42
				c-1.88,2.436-3.871,4.827-6.164,7.162c-1.152,1.167-2.339,2.343-3.734,3.474c-1.406,1.132-2.926,2.273-5.026,3.326l-0.352,0.176
				c-0.179,0.09-0.382,0.169-0.567,0.226c-3.265,0.995-6.402,1.12-9.254,0.896c-1.438-0.095-2.811-0.325-4.143-0.607
				c-1.334-0.279-2.621-0.613-3.871-1.012c-2.501-0.797-4.853-1.783-7.105-2.912c-1.126-0.563-2.219-1.178-3.296-1.815
				c-1.091-0.66-2.077-1.308-3.206-2.121c-1.73-1.247-2.123-3.66-0.876-5.39c0.939-1.303,2.539-1.848,4.012-1.504l0.344,0.081
				l3.125,0.732c1.062,0.25,2.131,0.464,3.189,0.669c2.118,0.397,4.214,0.733,6.243,0.896c2.022,0.203,3.99,0.202,5.752,0.049
				c1.771-0.149,3.301-0.582,4.419-1.102l-0.918,0.402c0.447-0.319,1.222-0.969,1.981-1.744c0.767-0.787,1.594-1.688,2.393-2.651
				c0.805-0.96,1.603-1.988,2.385-3.054c0.797-1.051,1.583-2.138,2.354-3.252c1.536-2.228,3.068-4.516,4.554-6.845
				c1.48-2.302,2.994-4.737,4.376-6.96l0.074-0.12c2.252-3.622,7.014-4.734,10.636-2.482
				C360.521,186.929,361.668,191.458,359.722,195.026z"/>
			<path style="opacity:0.7;fill:#FFFFFF;" d="M359.722,195.026c-1.52,2.775-3.06,5.248-4.727,7.792
				c-1.672,2.51-3.399,4.998-5.294,7.42c-1.88,2.436-3.871,4.827-6.164,7.162c-1.152,1.167-2.339,2.343-3.734,3.474
				c-1.406,1.132-2.926,2.273-5.026,3.326l-0.352,0.176c-0.179,0.09-0.382,0.169-0.567,0.226c-3.265,0.995-6.402,1.12-9.254,0.896
				c-1.438-0.095-2.811-0.325-4.143-0.607c-1.334-0.279-2.621-0.613-3.871-1.012c-2.501-0.797-4.853-1.783-7.105-2.912
				c-1.126-0.563-2.219-1.178-3.296-1.815c-1.091-0.66-2.077-1.308-3.206-2.121c-1.73-1.247-2.123-3.66-0.876-5.39
				c0.939-1.303,2.539-1.848,4.012-1.504l0.344,0.081l3.125,0.732c1.062,0.25,2.131,0.464,3.189,0.669
				c2.118,0.397,4.214,0.733,6.243,0.896c2.022,0.203,3.99,0.202,5.752,0.049c1.771-0.149,3.301-0.582,4.419-1.102l-0.918,0.402
				c0.447-0.319,1.222-0.969,1.981-1.744c0.767-0.787,1.594-1.688,2.393-2.651c0.805-0.96,1.603-1.988,2.385-3.054
				c0.797-1.051,1.583-2.138,2.354-3.252c1.536-2.228,3.068-4.516,4.554-6.845c1.48-2.302,2.994-4.737,4.376-6.96l0.074-0.12
				c2.252-3.622,7.014-4.734,10.636-2.482C360.521,186.929,361.668,191.458,359.722,195.026z"/>
		</g>
		<path style="fill:#407BFF;" d="M395.379,167.674c-0.267,0.276-0.676,0.367-1.037,0.234c-2.025-0.741-8.886-3.531-15.258-9.361
			c-7.579-6.935-8.221-14.886-4.869-11.092c1.867-1.988,9.762-4.433,17.084-1.265C399.084,149.559,402.805,160,395.379,167.674z"/>
		<path style="fill:#407BFF;" d="M388.911,145.354c0,0,6.454,5.609,3.797,14.366c2.289-0.398,4.638-1.784,4.638-1.784
			s1.175-5.602-1.039-9.216C394.093,145.106,389.376,144.2,388.911,145.354z"/>
		<path style="opacity:0.2;" d="M392.708,159.72c2.658-8.758-3.797-14.366-3.797-14.366c0.083-0.207,0.304-0.348,0.622-0.418
			C391.051,145.919,395.238,151.866,392.708,159.72z"/>
	</g>
</g>
</svg>
